<svg width="12" height="12" viewBox="0 0 12 12" fill="none" xmlns="http://www.w3.org/2000/svg">
<path d="M5.84961 0C6.2782 0 6.63141 0.322646 6.67969 0.738281L6.68555 0.835938V5.01465H10.8643C11.3257 5.01465 11.7 5.38819 11.7002 5.84961C11.7002 6.27815 11.3775 6.63135 10.9619 6.67969L10.8643 6.68555H6.68555V10.8643C6.68553 11.3258 6.31115 11.7002 5.84961 11.7002C5.42128 11.7 5.06787 11.3773 5.01953 10.9619L5.01465 10.8643V6.68555H0.835938C0.374383 6.68555 0 6.31116 0 5.84961C0.000153194 5.42116 0.322745 5.0678 0.738281 5.01953L0.835938 5.01465H5.01465V0.835938C5.01465 0.374525 5.38825 0.000230944 5.84961 0Z" fill="white"/>
</svg>
