<svg width="24" height="24" viewBox="0 0 24 24" fill="none" xmlns="http://www.w3.org/2000/svg">
<rect width="24" height="24" rx="12" fill="#FFDAC1"/>
<path d="M9 16.5V15.5C9 14.9696 9.21071 14.4609 9.58579 14.0858C9.96086 13.7107 10.4696 13.5 11 13.5H13C13.5304 13.5 14.0391 13.7107 14.4142 14.0858C14.7893 14.4609 15 14.9696 15 15.5V16.5M10 9.5C10 10.0304 10.2107 10.5391 10.5858 10.9142C10.9609 11.2893 11.4696 11.5 12 11.5C12.5304 11.5 13.0391 11.2893 13.4142 10.9142C13.7893 10.5391 14 10.0304 14 9.5C14 8.96957 13.7893 8.46086 13.4142 8.08579C13.0391 7.71071 12.5304 7.5 12 7.5C11.4696 7.5 10.9609 7.71071 10.5858 8.08579C10.2107 8.46086 10 8.96957 10 9.5Z" stroke="#663914" stroke-width="1.5" stroke-linecap="round" stroke-linejoin="round"/>
</svg>
