<svg width="13" height="14" viewBox="0 0 13 14" fill="none" xmlns="http://www.w3.org/2000/svg">
<path d="M7.1543 11.4785C7.33912 11.1599 7.74682 11.0515 8.06543 11.2363C8.38404 11.4212 8.49244 11.8288 8.30762 12.1475C8.08149 12.5372 7.7567 12.861 7.36621 13.0859C6.97587 13.3107 6.53343 13.4287 6.08301 13.4287C5.63237 13.4287 5.18933 13.3108 4.79883 13.0859C4.40831 12.861 4.08355 12.5373 3.85742 12.1475C3.67272 11.829 3.78125 11.4212 4.09961 11.2363C4.41822 11.0515 4.8269 11.1599 5.01172 11.4785C5.12059 11.666 5.27695 11.8215 5.46484 11.9297C5.65284 12.0379 5.86606 12.0957 6.08301 12.0957C6.2999 12.0957 6.51323 12.0379 6.70117 11.9297C6.889 11.8214 7.04548 11.666 7.1543 11.4785ZM6.125 0C7.25941 1.27979e-06 8.35029 0.439663 9.15723 1.22656C9.96468 2.01399 10.4219 3.08535 10.4219 4.20605C10.4219 6.18884 10.856 7.41644 11.2539 8.12793C11.4539 8.48546 11.6487 8.71991 11.7832 8.8584C11.8504 8.9276 11.9031 8.97343 11.9346 8.99902C11.9503 9.01181 11.9616 9.01938 11.9658 9.02246L11.9668 9.02344C12.1987 9.17913 12.3031 9.4678 12.2236 9.73633C12.1431 10.0079 11.8936 10.1942 11.6104 10.1943H0.639648C0.356421 10.1942 0.106883 10.0079 0.0263672 9.73633C-0.0531043 9.46779 0.051275 9.17913 0.283203 9.02344L0.28418 9.02246C0.288426 9.01938 0.299692 9.01181 0.31543 8.99902C0.346906 8.97343 0.399565 8.9276 0.466797 8.8584C0.601339 8.71991 0.796112 8.48546 0.996094 8.12793C1.394 7.41644 1.8281 6.18883 1.82812 4.20605C1.82813 3.08535 2.28531 2.01399 3.09277 1.22656C3.89971 0.439662 4.99059 0 6.125 0ZM6.125 1.28027C5.31984 1.28027 4.55091 1.59207 3.98633 2.14258C3.42229 2.69262 3.1084 3.4353 3.1084 4.20605C3.10837 6.38307 2.6285 7.83006 2.1123 8.75293C2.08101 8.80886 2.0499 8.8631 2.01855 8.91504H10.2314C10.2001 8.8631 10.169 8.80886 10.1377 8.75293C9.6215 7.83006 9.14163 6.38307 9.1416 4.20605C9.1416 3.4353 8.82771 2.69262 8.26367 2.14258C7.69909 1.59207 6.93016 1.28027 6.125 1.28027Z" fill="#323232"/>
</svg>
