<svg width="16" height="16" viewBox="0 0 16 16" fill="none" xmlns="http://www.w3.org/2000/svg">
<path d="M3.1665 6.15529C3.1665 6.43143 3.39036 6.65529 3.6665 6.65529C3.94264 6.65529 4.1665 6.43143 4.1665 6.15529H3.1665ZM4.1665 3.66663C4.1665 3.39049 3.94264 3.16663 3.6665 3.16663C3.39036 3.16663 3.1665 3.39049 3.1665 3.66663H4.1665ZM3.6665 3.16663C3.39036 3.16663 3.1665 3.39049 3.1665 3.66663C3.1665 3.94277 3.39036 4.16663 3.6665 4.16663V3.16663ZM6.15517 4.16663C6.43131 4.16663 6.65517 3.94277 6.65517 3.66663C6.65517 3.39049 6.43131 3.16663 6.15517 3.16663V4.16663ZM4.02006 3.31307C3.8248 3.11781 3.50821 3.11781 3.31295 3.31307C3.11769 3.50833 3.11769 3.82492 3.31295 4.02018L4.02006 3.31307ZM6.64628 7.35349C6.84157 7.54876 7.1581 7.54876 7.35337 7.35349C7.54864 7.15823 7.54864 6.84169 7.35337 6.64641L6.64628 7.35349ZM10.5112 12.5C10.235 12.5 10.0112 12.7238 10.0112 13C10.0112 13.2761 10.235 13.5 10.5112 13.5V12.5ZM12.9998 13.5C13.276 13.5 13.4998 13.2761 13.4998 13C13.4998 12.7238 13.276 12.5 12.9998 12.5V13.5ZM12.4998 13C12.4998 13.2761 12.7237 13.5 12.9998 13.5C13.276 13.5 13.4998 13.2761 13.4998 13H12.4998ZM13.4998 10.5113C13.4998 10.2352 13.276 10.0113 12.9998 10.0113C12.7237 10.0113 12.4998 10.2352 12.4998 10.5113H13.4998ZM12.6463 13.3535C12.8416 13.5488 13.1581 13.5488 13.3534 13.3535C13.5486 13.1582 13.5486 12.8417 13.3534 12.6464L12.6463 13.3535ZM10.02 9.31309C9.82477 9.11783 9.50824 9.11783 9.31297 9.31309C9.1177 9.50836 9.1177 9.82489 9.31297 10.0202L10.02 9.31309ZM4.1665 10.5113C4.1665 10.2352 3.94264 10.0113 3.6665 10.0113C3.39036 10.0113 3.1665 10.2352 3.1665 10.5113H4.1665ZM3.1665 13C3.1665 13.2761 3.39036 13.5 3.6665 13.5C3.94264 13.5 4.1665 13.2761 4.1665 13H3.1665ZM3.6665 12.5C3.39036 12.5 3.1665 12.7238 3.1665 13C3.1665 13.2761 3.39036 13.5 3.6665 13.5V12.5ZM6.15517 13.5C6.43131 13.5 6.65517 13.2761 6.65517 13C6.65517 12.7238 6.43131 12.5 6.15517 12.5V13.5ZM3.31295 12.6464C3.11769 12.8417 3.11769 13.1582 3.31295 13.3535C3.50821 13.5488 3.8248 13.5488 4.02006 13.3535L3.31295 12.6464ZM7.35337 10.0202C7.54864 9.82489 7.54864 9.50836 7.35337 9.31309C7.1581 9.11783 6.84157 9.11783 6.64628 9.31309L7.35337 10.0202ZM10.5112 3.16663C10.235 3.16663 10.0112 3.39049 10.0112 3.66663C10.0112 3.94277 10.235 4.16663 10.5112 4.16663V3.16663ZM12.9998 4.16663C13.276 4.16663 13.4998 3.94277 13.4998 3.66663C13.4998 3.39049 13.276 3.16663 12.9998 3.16663V4.16663ZM13.4998 3.66663C13.4998 3.39049 13.276 3.16663 12.9998 3.16663C12.7237 3.16663 12.4998 3.39049 12.4998 3.66663H13.4998ZM12.4998 6.15529C12.4998 6.43143 12.7237 6.65529 12.9998 6.65529C13.276 6.65529 13.4998 6.43143 13.4998 6.15529H12.4998ZM13.3534 4.02018C13.5486 3.82492 13.5486 3.50833 13.3534 3.31307C13.1581 3.11781 12.8416 3.11781 12.6463 3.31307L13.3534 4.02018ZM9.31297 6.64641C9.1177 6.84169 9.1177 7.15823 9.31297 7.35349C9.50824 7.54876 9.82477 7.54876 10.02 7.35349L9.31297 6.64641ZM4.1665 6.15529V3.66663H3.1665V6.15529H4.1665ZM3.6665 4.16663H6.15517V3.16663H3.6665V4.16663ZM3.31295 4.02018L6.64628 7.35349L7.35337 6.64641L4.02006 3.31307L3.31295 4.02018ZM10.5112 13.5H12.9998V12.5H10.5112V13.5ZM13.4998 13V10.5113H12.4998V13H13.4998ZM13.3534 12.6464L10.02 9.31309L9.31297 10.0202L12.6463 13.3535L13.3534 12.6464ZM3.1665 10.5113V13H4.1665V10.5113H3.1665ZM3.6665 13.5H6.15517V12.5H3.6665V13.5ZM4.02006 13.3535L7.35337 10.0202L6.64628 9.31309L3.31295 12.6464L4.02006 13.3535ZM10.5112 4.16663H12.9998V3.16663H10.5112V4.16663ZM12.4998 3.66663V6.15529H13.4998V3.66663H12.4998ZM12.6463 3.31307L9.31297 6.64641L10.02 7.35349L13.3534 4.02018L12.6463 3.31307Z" fill="black"/>
</svg>
