<svg width="16" height="16" viewBox="0 0 16 16" fill="none" xmlns="http://www.w3.org/2000/svg">
<path d="M2.6665 7.66659V5.99992M13.3332 7.66659V6.23221C13.3332 4.91602 13.3332 4.25793 12.9228 3.83017C12.885 3.79082 12.8451 3.75337 12.8031 3.71799C12.3468 3.33325 11.6449 3.33325 10.241 3.33325H10.0416C9.42637 3.33325 9.1187 3.33325 8.83204 3.25664C8.6745 3.21455 8.52277 3.15561 8.37964 3.08097C8.1191 2.94509 7.90157 2.74114 7.4665 2.33325L7.17304 2.05813C7.02724 1.92141 6.9543 1.85306 6.8777 1.79351C6.54732 1.53677 6.14205 1.37939 5.71481 1.34194C5.61571 1.33325 5.5126 1.33325 5.30637 1.33325C4.83568 1.33325 4.60034 1.33325 4.40431 1.36793C3.54134 1.52057 2.86631 2.15341 2.70349 2.96245C2.68299 3.0643 2.67386 3.17747 2.66978 3.33325C2.6665 3.45855 2.6665 3.61142 2.6665 3.80813" stroke="#323232" stroke-linecap="round"/>
<path d="M6.6665 11.3333H9.33317" stroke="#323232" stroke-linecap="round"/>
<path d="M6.66667 7.33325H5.80353C4.02527 7.33325 3.13613 7.33325 2.58605 7.84219C2.44568 7.97205 2.3244 8.12245 2.22605 8.28859C1.84067 8.93972 1.99972 9.84512 2.31783 11.6559C2.54683 12.9593 2.66132 13.6111 3.05804 14.0436C3.16097 14.1558 3.27613 14.2553 3.40122 14.34C3.88333 14.6666 4.5234 14.6666 5.80354 14.6666H10.1965C11.4766 14.6666 12.1167 14.6666 12.5988 14.34C12.7239 14.2553 12.839 14.1558 12.9419 14.0436C13.3387 13.6111 13.4532 12.9593 13.6822 11.6559C14.0003 9.84512 14.1593 8.93972 13.7739 8.28859C13.6756 8.12245 13.5543 7.97205 13.4139 7.84219C12.8639 7.33325 11.9747 7.33325 10.1965 7.33325H9.33333" stroke="#323232" stroke-linecap="round"/>
</svg>
