<svg width="22" height="22" viewBox="0 0 22 22" fill="none" xmlns="http://www.w3.org/2000/svg">
<path d="M11.0002 20.1667C16.0628 20.1667 20.1668 16.0627 20.1668 11C20.1668 5.93743 16.0628 1.83337 11.0002 1.83337C5.93755 1.83337 1.8335 5.93743 1.8335 11C1.8335 16.0627 5.93755 20.1667 11.0002 20.1667Z" fill="#0077B5"/>
<path fill-rule="evenodd" clip-rule="evenodd" d="M8.60489 6.54679C8.60489 7.11746 8.17039 7.57927 7.49091 7.57927C6.83788 7.57927 6.40333 7.11746 6.41681 6.54679C6.40333 5.94839 6.83783 5.5 7.50393 5.5C8.17039 5.5 8.59188 5.94839 8.60489 6.54679ZM6.47144 15.0421V8.39492H8.53724V15.0416L6.47144 15.0421Z" fill="white"/>
<path fill-rule="evenodd" clip-rule="evenodd" d="M10.1933 10.5163C10.1933 9.68725 10.166 8.9804 10.1387 8.39589H11.933L12.0284 9.30651H12.0692C12.3411 8.88502 13.0206 8.2467 14.1216 8.2467C15.4806 8.2467 16.5001 9.14389 16.5001 11.1004V15.043H14.4342V11.3593C14.4342 10.5025 14.1355 9.91834 13.3879 9.91834C12.8168 9.91834 12.4772 10.3125 12.3415 10.6928C12.2869 10.829 12.26 11.0189 12.26 11.2097V15.043H10.1941V10.5163H10.1933Z" fill="white"/>
</svg>
