<svg width="11" height="11" viewBox="0 0 11 11" fill="none" xmlns="http://www.w3.org/2000/svg">
<path d="M0.524902 5.77502H2.2749L4.0249 7.52502H6.35824L8.10824 5.77502H9.85824M0.524902 1.69169C0.524902 1.38227 0.647819 1.08553 0.866611 0.866733C1.0854 0.647941 1.38215 0.525024 1.69157 0.525024H8.69157C9.00099 0.525024 9.29773 0.647941 9.51653 0.866733C9.73532 1.08553 9.85824 1.38227 9.85824 1.69169V8.69169C9.85824 9.00111 9.73532 9.29786 9.51653 9.51665C9.29773 9.73544 9.00099 9.85836 8.69157 9.85836H1.69157C1.38215 9.85836 1.0854 9.73544 0.866611 9.51665C0.647819 9.29786 0.524902 9.00111 0.524902 8.69169V1.69169Z" stroke="#323232" stroke-width="1.05" stroke-linecap="round" stroke-linejoin="round"/>
</svg>
