<svg width="10" height="11" viewBox="0 0 10 11" fill="none" xmlns="http://www.w3.org/2000/svg">
<path d="M4.23938 2.25C4.23938 2.05109 4.16036 1.86032 4.01971 1.71967C3.87906 1.57902 3.68829 1.5 3.48938 1.5C3.29047 1.5 3.0997 1.57902 2.95905 1.71967C2.8184 1.86032 2.73938 2.05109 2.73938 2.25V6L2.00435 5.265C1.85712 5.11794 1.66497 5.02429 1.45843 4.99892C1.25189 4.97356 1.04279 5.01793 0.86435 5.125C0.696824 5.22544 0.57509 5.38727 0.525041 5.57608C0.474991 5.76488 0.500575 5.96577 0.59635 6.136C1.53585 7.806 2.08335 8.7605 2.23935 9C2.27189 9.05008 2.30455 9.10008 2.33735 9.15C2.61061 9.56494 2.98264 9.90551 3.42004 10.1411C3.85744 10.3768 4.34652 10.5001 4.84335 10.5H4.73935H5.73935C6.535 10.5 7.29806 10.1839 7.86067 9.62132C8.42328 9.05871 8.73935 8.29565 8.73935 7.5V3.25C8.73935 3.05109 8.66033 2.86032 8.51968 2.71967C8.37903 2.57902 8.18826 2.5 7.98935 2.5C7.79044 2.5 7.59967 2.57902 7.45902 2.71967C7.31837 2.86032 7.23935 3.05109 7.23935 3.25M4.23938 2.25V5.5M4.23938 2.25V1.25C4.23938 1.15151 4.25878 1.05398 4.29647 0.962987C4.33416 0.871993 4.38941 0.789314 4.45905 0.71967C4.52869 0.650026 4.61137 0.594781 4.70237 0.55709C4.79336 0.519399 4.89089 0.5 4.98938 0.5C5.08787 0.5 5.1854 0.519399 5.27639 0.55709C5.36739 0.594781 5.45007 0.650026 5.51971 0.71967C5.58935 0.789314 5.6446 0.871993 5.68229 0.962987C5.71998 1.05398 5.73938 1.15151 5.73938 1.25V5.5M5.73938 2.25C5.73938 2.05109 5.8184 1.86032 5.95905 1.71967C6.0997 1.57902 6.29047 1.5 6.48938 1.5C6.68829 1.5 6.87906 1.57902 7.01971 1.71967C7.16036 1.86032 7.23938 2.05109 7.23938 2.25V5.5" stroke="#2E2E2E" stroke-linecap="round" stroke-linejoin="round"/>
</svg>
