<svg width="14" height="14" viewBox="0 0 14 14" fill="none" xmlns="http://www.w3.org/2000/svg">
<path fill-rule="evenodd" clip-rule="evenodd" d="M7 12.2501C7 11.9279 7.26116 11.6667 7.58333 11.6667H12.25C12.5722 11.6667 12.8333 11.9279 12.8333 12.2501C12.8333 12.5723 12.5722 12.8334 12.25 12.8334H7.58333C7.26116 12.8334 7 12.5723 7 12.2501Z" fill="#323232"/>
<path fill-rule="evenodd" clip-rule="evenodd" d="M12.118 4.72505C13.0571 3.7823 13.0172 2.5443 12.316 1.78615C11.974 1.41647 11.4874 1.18034 10.9362 1.16732C10.383 1.15425 9.80982 1.36582 9.28092 1.80833C9.26738 1.81964 9.25437 1.83157 9.24195 1.84406L1.67685 9.43935C1.35017 9.7673 1.16675 10.2114 1.16675 10.6743V11.6622C1.16675 12.3047 1.68706 12.8334 2.33565 12.8334H3.31496C3.7803 12.8334 4.22647 12.6481 4.55486 12.3184L12.118 4.72505ZM10.0376 3.3793C9.80976 3.1515 9.4404 3.1515 9.21261 3.3793C8.98482 3.60711 8.98482 3.97645 9.21261 4.20426L9.79594 4.7876C10.0237 5.0154 10.3931 5.0154 10.6209 4.7876C10.8487 4.55979 10.8487 4.19044 10.6209 3.96263L10.0376 3.3793Z" fill="#323232"/>
</svg>
