<svg width="12" height="12" viewBox="0 0 12 12" fill="none" xmlns="http://www.w3.org/2000/svg">
<path d="M9.85824 0.525024H1.69157C1.38215 0.525024 1.0854 0.647941 0.866611 0.866733C0.647819 1.08553 0.524902 1.38227 0.524902 1.69169V9.85836C0.524902 10.1678 0.647819 10.4645 0.866611 10.6833C1.0854 10.9021 1.38215 11.025 1.69157 11.025H9.85824C10.1677 11.025 10.4644 10.9021 10.6832 10.6833C10.902 10.4645 11.0249 10.1678 11.0249 9.85836V1.69169C11.0249 1.38227 10.902 1.08553 10.6832 0.866733C10.4644 0.647941 10.1677 0.525024 9.85824 0.525024ZM9.85824 0.525024L5.7749 4.60836M4.0249 0.525024L0.524902 4.02502M6.94157 0.525024L2.85824 4.60836M11.0249 2.27502L8.69157 4.60836M0.524902 4.60836H11.0249M4.60824 4.60836V11.025" stroke="#888888" stroke-width="1.05" stroke-linecap="round" stroke-linejoin="round"/>
</svg>
